<svg width="73" height="20" viewBox="0 0 73 20" fill="none" xmlns="http://www.w3.org/2000/svg">
<path d="M69.0948 9.51998L73 20C71.8491 19.8334 70.6989 19.6247 69.5276 19.4367L67.3277 13.6461L65.0674 18.9587C63.958 18.7706 62.8682 18.708 61.7587 18.562L65.7251 9.39538L62.1276 0H65.4573L67.471 5.24935L69.6295 0H72.9994L69.0948 9.51998ZM59.4983 0H56.4771V18.1667C57.4636 18.2294 58.4908 18.2707 59.4983 18.3953V0ZM53.8668 17.958C51.1132 17.7707 48.3589 17.6047 45.5435 17.5414V8.04866e-05H48.626V14.5833C50.3937 14.6247 52.1608 14.7701 53.8668 14.8534V17.958ZM42.2545 7.10465V10.2293H38.0416V17.3333H35.0006V0H43.6323V3.12466H38.0422V7.10473H42.2552L42.2545 7.10465ZM29.8209 3.12466V17.5C28.793 17.5 27.7454 17.5 26.7378 17.5414V3.12466H23.5522V0H33.0262V3.12466H29.8209ZM20.2231 10.3954C18.867 10.3954 17.2636 10.3954 16.1127 10.4587V15.104C17.9212 14.9787 19.7298 14.8333 21.5587 14.7707V17.7707L13.0303 18.4587V0H21.5581V3.12466H16.1126V7.33331C17.305 7.33331 19.1339 7.27069 20.2229 7.27069V10.396L20.2231 10.3954ZM3.14365 8.64533V19.562C2.03484 19.6873 1.04767 19.8333 0 20V0H2.93912L6.94631 11.3548V0H10.0294V18.708C8.94026 18.896 7.83018 18.9587 6.65888 19.1247L3.14365 8.64533Z" fill="#E50914"/>
</svg>
